<svg width="94" height="99" viewBox="0 0 94 99" fill="none" xmlns="http://www.w3.org/2000/svg">
<path d="M43.9058 0.602586L5.71088 15.9495C2.27701 17.3268 0 20.8684 0 24.8035V69.0932C0 72.6741 1.89138 75.9403 4.86618 77.534L43.0611 97.9966C45.5401 99.3345 48.4599 99.3345 50.9389 97.9966L89.1338 77.534C92.127 75.9403 94 72.6544 94 69.0932V24.8035C94 20.8684 91.723 17.3465 88.2891 15.9692L50.0942 0.622261C48.111 -0.204112 45.9074 -0.204112 43.9058 0.602586ZM47.0092 12.8211L82.2661 26.9875V27.2039L47.0092 42.5509L11.7523 27.2039V26.9875L47.0092 12.8211ZM52.8853 82.8661V53.5692L82.2661 40.7801V67.1256L52.8853 82.8661Z" fill="white"/>
</svg>
